<svg height="512" viewBox="0 0 64 64" width="512" xmlns="http://www.w3.org/2000/svg"><g id="Web_Programming" data-name="Web Programming"><path d="m51 30.17a15.763 15.763 0 0 0 -6-1.17 16 16 0 0 0 -16 16 15.763 15.763 0 0 0 1.17 6 16 16 0 1 0 20.83-20.83z" fill="#9bc9ff"/><path d="m51 5a2.006 2.006 0 0 0 -2-2h-44a2.006 2.006 0 0 0 -2 2v6h48z" fill="#9bc9ff"/><g fill="#57a4ff"><path d="m52 29.526v-24.526a3 3 0 0 0 -3-3h-44a3 3 0 0 0 -3 3v44a3 3 0 0 0 3 3h24.526a16.989 16.989 0 1 0 22.474-22.474zm-47-25.526h44a1 1 0 0 1 1 1v5h-46v-5a1 1 0 0 1 1-1zm0 46a1 1 0 0 1 -1-1v-37h46v16.753a17 17 0 0 0 -21.247 21.247zm40 10a15 15 0 1 1 15-15 15.017 15.017 0 0 1 -15 15z"/><path d="m6 6h2v2h-2z"/><path d="m10 6h2v2h-2z"/><path d="m14 6h2v2h-2z"/><path d="m46 6h2v2h-2z"/><path d="m40.293 36.293-8 8a1 1 0 0 0 0 1.414l8 8 1.414-1.414-7.293-7.293 7.293-7.293z"/><path d="m57.707 44.293-8-8-1.414 1.414 7.293 7.293-7.293 7.293 1.414 1.414 8-8a1 1 0 0 0 0-1.414z"/><path d="m44 36h2v18h-2z"/></g></g></svg>